<svg width="99" height="11" viewBox="0 0 99 11" fill="none" xmlns="http://www.w3.org/2000/svg">
<path d="M0.036 10V0.199999H3.256C4.02133 0.199999 4.65133 0.325999 5.146 0.577999C5.64067 0.83 6.00467 1.17067 6.238 1.6C6.48067 2.02933 6.602 2.51467 6.602 3.056C6.602 3.588 6.48533 4.06867 6.252 4.498C6.01867 4.92733 5.65467 5.27267 5.16 5.534C4.66533 5.786 4.03067 5.912 3.256 5.912H1.212V10H0.036ZM1.212 4.918H3.228C4.012 4.918 4.56733 4.75467 4.894 4.428C5.23 4.092 5.398 3.63467 5.398 3.056C5.398 2.468 5.23 2.01067 4.894 1.684C4.56733 1.348 4.012 1.18 3.228 1.18H1.212V4.918ZM8.14342 10V0.199999H11.3074C12.0728 0.199999 12.6981 0.325999 13.1834 0.577999C13.6688 0.83 14.0281 1.17533 14.2614 1.614C14.4948 2.05267 14.6114 2.538 14.6114 3.07C14.6114 3.686 14.4434 4.24133 14.1074 4.736C13.7808 5.23067 13.2674 5.58067 12.5674 5.786L14.7094 10H13.3234L11.3354 5.954H11.2514H9.31942V10H8.14342ZM9.31942 5.03H11.2234C11.9794 5.03 12.5301 4.848 12.8754 4.484C13.2208 4.12 13.3934 3.65333 13.3934 3.084C13.3934 2.50533 13.2208 2.048 12.8754 1.712C12.5394 1.36667 11.9841 1.194 11.2094 1.194H9.31942V5.03ZM20.8943 10.168C19.9329 10.168 19.0883 9.958 18.3603 9.538C17.6416 9.10867 17.0769 8.51133 16.6663 7.746C16.2649 6.98067 16.0643 6.09867 16.0643 5.1C16.0643 4.10133 16.2649 3.224 16.6663 2.468C17.0769 1.70267 17.6416 1.10533 18.3603 0.676C19.0883 0.246667 19.9329 0.0319998 20.8943 0.0319998C21.8649 0.0319998 22.7096 0.246667 23.4283 0.676C24.1563 1.10533 24.7209 1.70267 25.1223 2.468C25.5236 3.224 25.7243 4.10133 25.7243 5.1C25.7243 6.09867 25.5236 6.98067 25.1223 7.746C24.7209 8.51133 24.1563 9.10867 23.4283 9.538C22.7096 9.958 21.8649 10.168 20.8943 10.168ZM20.8943 9.132C21.6129 9.132 22.2429 8.97333 22.7843 8.656C23.3349 8.32933 23.7596 7.86733 24.0583 7.27C24.3663 6.66333 24.5203 5.94 24.5203 5.1C24.5203 4.26 24.3663 3.54133 24.0583 2.944C23.7596 2.34667 23.3349 1.88933 22.7843 1.572C22.2429 1.24533 21.6129 1.082 20.8943 1.082C20.1756 1.082 19.5409 1.24533 18.9903 1.572C18.4489 1.88933 18.0243 2.34667 17.7163 2.944C17.4176 3.54133 17.2683 4.26 17.2683 5.1C17.2683 5.94 17.4176 6.66333 17.7163 7.27C18.0243 7.86733 18.4489 8.32933 18.9903 8.656C19.5409 8.97333 20.1756 9.132 20.8943 9.132ZM29.6048 10.168C28.7181 10.168 28.0228 9.92067 27.5188 9.426C27.0148 8.93133 26.7628 8.24533 26.7628 7.368H27.9528C27.9528 7.86267 28.0741 8.278 28.3168 8.614C28.5594 8.95 28.9841 9.118 29.5908 9.118C30.1788 9.118 30.5848 8.95467 30.8088 8.628C31.0421 8.30133 31.1588 7.89533 31.1588 7.41V0.199999H32.3348V7.41C32.3348 8.278 32.0921 8.95467 31.6068 9.44C31.1308 9.92533 30.4634 10.168 29.6048 10.168ZM34.4071 10V0.199999H40.4691V1.166H35.5831V4.582H40.0491V5.534H35.5831V9.034H40.4691V10H34.4071ZM46.6074 10.168C45.6461 10.168 44.8154 9.958 44.1154 9.538C43.4248 9.10867 42.8881 8.516 42.5054 7.76C42.1228 6.99467 41.9314 6.108 41.9314 5.1C41.9314 4.10133 42.1228 3.224 42.5054 2.468C42.8881 1.70267 43.4248 1.10533 44.1154 0.676C44.8154 0.246667 45.6461 0.0319998 46.6074 0.0319998C47.7274 0.0319998 48.6374 0.302666 49.3374 0.843999C50.0468 1.376 50.4994 2.12267 50.6954 3.084H49.3934C49.2441 2.47733 48.9361 1.992 48.4694 1.628C48.0121 1.25467 47.3914 1.068 46.6074 1.068C45.9074 1.068 45.2961 1.23133 44.7734 1.558C44.2508 1.87533 43.8448 2.33733 43.5554 2.944C43.2754 3.54133 43.1354 4.26 43.1354 5.1C43.1354 5.94 43.2754 6.66333 43.5554 7.27C43.8448 7.86733 44.2508 8.32933 44.7734 8.656C45.2961 8.97333 45.9074 9.132 46.6074 9.132C47.3914 9.132 48.0121 8.95467 48.4694 8.6C48.9361 8.236 49.2441 7.75533 49.3934 7.158H50.6954C50.4994 8.10067 50.0468 8.838 49.3374 9.37C48.6374 9.902 47.7274 10.168 46.6074 10.168ZM54.4492 10V1.166H51.5232V0.199999H58.5512V1.166H55.6252V10H54.4492ZM59.9032 10V0.199999H62.0312L65.1532 6.416L68.2332 0.199999H70.3612V10H68.5692V3.238L65.8392 8.6H64.4252L61.6952 3.238V10H59.9032ZM76.0425 10.168C75.3239 10.168 74.6752 10.028 74.0965 9.748C73.5179 9.45867 73.0559 9.02467 72.7105 8.446C72.3745 7.86733 72.2065 7.13467 72.2065 6.248V0.199999H73.9985V6.262C73.9985 7.02733 74.1805 7.59667 74.5445 7.97C74.9179 8.34333 75.4312 8.53 76.0845 8.53C76.7285 8.53 77.2372 8.34333 77.6105 7.97C77.9839 7.59667 78.1705 7.02733 78.1705 6.262V0.199999H79.9625V6.248C79.9625 7.13467 79.7852 7.86733 79.4305 8.446C79.0759 9.02467 78.5999 9.45867 78.0025 9.748C77.4145 10.028 76.7612 10.168 76.0425 10.168ZM85.1378 10.168C84.4192 10.168 83.7845 10.0467 83.2338 9.804C82.6832 9.552 82.2492 9.19733 81.9318 8.74C81.6145 8.27333 81.4512 7.70867 81.4418 7.046H83.3318C83.3505 7.50333 83.5138 7.89067 83.8218 8.208C84.1392 8.516 84.5732 8.67 85.1238 8.67C85.5998 8.67 85.9778 8.558 86.2578 8.334C86.5378 8.10067 86.6778 7.79267 86.6778 7.41C86.6778 7.00867 86.5518 6.696 86.2998 6.472C86.0572 6.248 85.7305 6.066 85.3198 5.926C84.9092 5.786 84.4705 5.63667 84.0038 5.478C83.2478 5.21667 82.6692 4.88067 82.2678 4.47C81.8758 4.05933 81.6798 3.51333 81.6798 2.832C81.6705 2.25333 81.8058 1.75867 82.0858 1.348C82.3752 0.927999 82.7672 0.605999 83.2618 0.381999C83.7565 0.148666 84.3258 0.0319998 84.9698 0.0319998C85.6232 0.0319998 86.1972 0.148666 86.6918 0.381999C87.1958 0.615333 87.5878 0.941999 87.8678 1.362C88.1572 1.782 88.3112 2.28133 88.3298 2.86H86.4118C86.4025 2.51467 86.2672 2.21133 86.0058 1.95C85.7538 1.67933 85.3992 1.544 84.9418 1.544C84.5498 1.53467 84.2185 1.63267 83.9478 1.838C83.6865 2.034 83.5558 2.32333 83.5558 2.706C83.5558 3.03267 83.6585 3.294 83.8638 3.49C84.0692 3.67667 84.3492 3.83533 84.7038 3.966C85.0585 4.09667 85.4645 4.23667 85.9218 4.386C86.4072 4.554 86.8505 4.75 87.2518 4.974C87.6532 5.198 87.9752 5.49667 88.2178 5.87C88.4605 6.234 88.5818 6.70533 88.5818 7.284C88.5818 7.79733 88.4512 8.27333 88.1898 8.712C87.9285 9.15067 87.5412 9.50533 87.0278 9.776C86.5145 10.0373 85.8845 10.168 85.1378 10.168ZM89.5154 10L93.0994 0.199999H95.1154L98.6994 10H96.7954L96.0114 7.732H92.1894L91.3914 10H89.5154ZM92.6794 6.332H95.5214L94.0934 2.258L92.6794 6.332Z" fill="#B576CB"/>
</svg>
